<mxfile host="65bd71144e">
    <diagram id="JJ6nr9gFkphjQjIB2UeL" name="Home Page">
        <mxGraphModel dx="1039" dy="1709" grid="1" gridSize="10" guides="1" tooltips="1" connect="1" arrows="1" fold="1" page="1" pageScale="1" pageWidth="850" pageHeight="1100" math="0" shadow="0">
            <root>
                <mxCell id="0"/>
                <mxCell id="1" parent="0"/>
                <mxCell id="VxxARzWl_vqOeU3UC_TN-17" value="" style="group" vertex="1" connectable="0" parent="1">
                    <mxGeometry x="30" y="-30" width="650" height="640" as="geometry"/>
                </mxCell>
                <mxCell id="3" value="" style="whiteSpace=wrap;html=1;aspect=fixed;fillColor=#31572c;fontColor=#ffffff;strokeColor=#001DBC;" parent="VxxARzWl_vqOeU3UC_TN-17" vertex="1">
                    <mxGeometry width="640" height="640" as="geometry"/>
                </mxCell>
                <mxCell id="9" style="edgeStyle=none;html=1;exitX=0.5;exitY=1;exitDx=0;exitDy=0;" parent="VxxARzWl_vqOeU3UC_TN-17" source="4" target="3" edge="1">
                    <mxGeometry relative="1" as="geometry"/>
                </mxCell>
                <mxCell id="4" value="" style="rounded=0;whiteSpace=wrap;html=1;fillColor=#132a13;" parent="VxxARzWl_vqOeU3UC_TN-17" vertex="1">
                    <mxGeometry width="640" height="120" as="geometry"/>
                </mxCell>
                <mxCell id="5" value="JOIN our table" style="text;strokeColor=none;fillColor=none;html=1;fontSize=24;fontStyle=1;verticalAlign=middle;align=center;" parent="VxxARzWl_vqOeU3UC_TN-17" vertex="1">
                    <mxGeometry x="270" y="20" width="100" height="40" as="geometry"/>
                </mxCell>
                <mxCell id="6" value="Share your recipes!" style="text;html=1;strokeColor=none;fillColor=none;align=center;verticalAlign=middle;whiteSpace=wrap;rounded=0;" parent="VxxARzWl_vqOeU3UC_TN-17" vertex="1">
                    <mxGeometry x="240" y="60" width="160" height="30" as="geometry"/>
                </mxCell>
                <mxCell id="7" value="Login" style="text;html=1;strokeColor=none;fillColor=none;align=center;verticalAlign=middle;whiteSpace=wrap;rounded=0;" parent="VxxARzWl_vqOeU3UC_TN-17" vertex="1">
                    <mxGeometry x="590" width="60" height="30" as="geometry"/>
                </mxCell>
                <mxCell id="10" value="" style="rounded=0;whiteSpace=wrap;html=1;fillColor=#90a955;strokeColor=none;gradientColor=none;" parent="VxxARzWl_vqOeU3UC_TN-17" vertex="1">
                    <mxGeometry y="90" width="640" height="40" as="geometry"/>
                </mxCell>
                <mxCell id="11" value="Home" style="text;html=1;strokeColor=none;fillColor=none;align=center;verticalAlign=middle;whiteSpace=wrap;rounded=0;" parent="VxxARzWl_vqOeU3UC_TN-17" vertex="1">
                    <mxGeometry y="95" width="60" height="30" as="geometry"/>
                </mxCell>
                <mxCell id="12" value="My Recipes" style="text;html=1;strokeColor=none;fillColor=none;align=center;verticalAlign=middle;whiteSpace=wrap;rounded=0;" parent="VxxARzWl_vqOeU3UC_TN-17" vertex="1">
                    <mxGeometry x="60" y="95" width="60" height="30" as="geometry"/>
                </mxCell>
                <mxCell id="14" value="New Recipe" style="text;html=1;strokeColor=none;fillColor=none;align=center;verticalAlign=middle;whiteSpace=wrap;rounded=0;" parent="VxxARzWl_vqOeU3UC_TN-17" vertex="1">
                    <mxGeometry x="120" y="95" width="60" height="30" as="geometry"/>
                </mxCell>
                <mxCell id="15" value="Search" style="text;html=1;strokeColor=none;fillColor=none;align=center;verticalAlign=middle;whiteSpace=wrap;rounded=0;" parent="VxxARzWl_vqOeU3UC_TN-17" vertex="1">
                    <mxGeometry x="570" y="95" width="60" height="30" as="geometry"/>
                </mxCell>
                <mxCell id="17" value="All Recipes" style="text;html=1;strokeColor=none;fillColor=none;align=center;verticalAlign=middle;whiteSpace=wrap;rounded=0;" parent="VxxARzWl_vqOeU3UC_TN-17" vertex="1">
                    <mxGeometry x="180" y="95" width="60" height="30" as="geometry"/>
                </mxCell>
                <mxCell id="TIm3emH9RXK-0WENc9MG-18" value="" style="group" vertex="1" connectable="0" parent="VxxARzWl_vqOeU3UC_TN-17">
                    <mxGeometry x="80" y="190" width="110" height="110" as="geometry"/>
                </mxCell>
                <mxCell id="aV4lrfU_kgNnpPStSUIJ-17" value="" style="whiteSpace=wrap;html=1;aspect=fixed;fillColor=#ecf39e;gradientColor=none;rounded=1;shadow=1;" parent="TIm3emH9RXK-0WENc9MG-18" vertex="1">
                    <mxGeometry width="110" height="110" as="geometry"/>
                </mxCell>
                <mxCell id="jVyMAxWGrGHtj_U429cB-17" value="" style="whiteSpace=wrap;html=1;aspect=fixed;fontSize=18;" vertex="1" parent="TIm3emH9RXK-0WENc9MG-18">
                    <mxGeometry x="15" y="10" width="80" height="80" as="geometry"/>
                </mxCell>
                <mxCell id="jVyMAxWGrGHtj_U429cB-20" value="Photo" style="text;html=1;strokeColor=none;fillColor=none;align=center;verticalAlign=middle;whiteSpace=wrap;rounded=0;fontSize=18;" vertex="1" parent="TIm3emH9RXK-0WENc9MG-18">
                    <mxGeometry x="25" y="35" width="60" height="30" as="geometry"/>
                </mxCell>
                <mxCell id="jVyMAxWGrGHtj_U429cB-22" value="Recipe Title" style="text;html=1;strokeColor=none;fillColor=none;align=center;verticalAlign=middle;whiteSpace=wrap;rounded=0;labelBackgroundColor=none;fontSize=12;fontColor=#000000;" vertex="1" parent="TIm3emH9RXK-0WENc9MG-18">
                    <mxGeometry x="15" y="90" width="80" height="20" as="geometry"/>
                </mxCell>
                <mxCell id="TIm3emH9RXK-0WENc9MG-46" value="" style="group" vertex="1" connectable="0" parent="VxxARzWl_vqOeU3UC_TN-17">
                    <mxGeometry x="460" y="190" width="110" height="110" as="geometry"/>
                </mxCell>
                <mxCell id="TIm3emH9RXK-0WENc9MG-47" value="" style="whiteSpace=wrap;html=1;aspect=fixed;fillColor=#ecf39e;gradientColor=none;rounded=1;shadow=1;" vertex="1" parent="TIm3emH9RXK-0WENc9MG-46">
                    <mxGeometry width="110" height="110" as="geometry"/>
                </mxCell>
                <mxCell id="TIm3emH9RXK-0WENc9MG-48" value="" style="whiteSpace=wrap;html=1;aspect=fixed;fontSize=18;" vertex="1" parent="TIm3emH9RXK-0WENc9MG-46">
                    <mxGeometry x="15" y="10" width="80" height="80" as="geometry"/>
                </mxCell>
                <mxCell id="TIm3emH9RXK-0WENc9MG-49" value="Photo" style="text;html=1;strokeColor=none;fillColor=none;align=center;verticalAlign=middle;whiteSpace=wrap;rounded=0;fontSize=18;" vertex="1" parent="TIm3emH9RXK-0WENc9MG-46">
                    <mxGeometry x="25" y="35" width="60" height="30" as="geometry"/>
                </mxCell>
                <mxCell id="TIm3emH9RXK-0WENc9MG-50" value="Recipe Title" style="text;html=1;strokeColor=none;fillColor=none;align=center;verticalAlign=middle;whiteSpace=wrap;rounded=0;labelBackgroundColor=none;fontSize=12;fontColor=#000000;" vertex="1" parent="TIm3emH9RXK-0WENc9MG-46">
                    <mxGeometry x="15" y="90" width="80" height="20" as="geometry"/>
                </mxCell>
                <mxCell id="TIm3emH9RXK-0WENc9MG-41" value="" style="group" vertex="1" connectable="0" parent="VxxARzWl_vqOeU3UC_TN-17">
                    <mxGeometry x="270" y="190" width="110" height="110" as="geometry"/>
                </mxCell>
                <mxCell id="TIm3emH9RXK-0WENc9MG-42" value="" style="whiteSpace=wrap;html=1;aspect=fixed;fillColor=#ecf39e;gradientColor=none;rounded=1;shadow=1;" vertex="1" parent="TIm3emH9RXK-0WENc9MG-41">
                    <mxGeometry width="110" height="110" as="geometry"/>
                </mxCell>
                <mxCell id="TIm3emH9RXK-0WENc9MG-43" value="" style="whiteSpace=wrap;html=1;aspect=fixed;fontSize=18;" vertex="1" parent="TIm3emH9RXK-0WENc9MG-41">
                    <mxGeometry x="15" y="10" width="80" height="80" as="geometry"/>
                </mxCell>
                <mxCell id="TIm3emH9RXK-0WENc9MG-44" value="Photo" style="text;html=1;strokeColor=none;fillColor=none;align=center;verticalAlign=middle;whiteSpace=wrap;rounded=0;fontSize=18;" vertex="1" parent="TIm3emH9RXK-0WENc9MG-41">
                    <mxGeometry x="25" y="35" width="60" height="30" as="geometry"/>
                </mxCell>
                <mxCell id="TIm3emH9RXK-0WENc9MG-45" value="Recipe Title" style="text;html=1;strokeColor=none;fillColor=none;align=center;verticalAlign=middle;whiteSpace=wrap;rounded=0;labelBackgroundColor=none;fontSize=12;fontColor=#000000;" vertex="1" parent="TIm3emH9RXK-0WENc9MG-41">
                    <mxGeometry x="15" y="90" width="80" height="20" as="geometry"/>
                </mxCell>
                <mxCell id="TIm3emH9RXK-0WENc9MG-63" value="" style="group" vertex="1" connectable="0" parent="VxxARzWl_vqOeU3UC_TN-17">
                    <mxGeometry x="460" y="330" width="110" height="110" as="geometry"/>
                </mxCell>
                <mxCell id="TIm3emH9RXK-0WENc9MG-64" value="" style="whiteSpace=wrap;html=1;aspect=fixed;fillColor=#ecf39e;gradientColor=none;rounded=1;shadow=1;" vertex="1" parent="TIm3emH9RXK-0WENc9MG-63">
                    <mxGeometry width="110" height="110" as="geometry"/>
                </mxCell>
                <mxCell id="TIm3emH9RXK-0WENc9MG-65" value="" style="whiteSpace=wrap;html=1;aspect=fixed;fontSize=18;" vertex="1" parent="TIm3emH9RXK-0WENc9MG-63">
                    <mxGeometry x="15" y="10" width="80" height="80" as="geometry"/>
                </mxCell>
                <mxCell id="TIm3emH9RXK-0WENc9MG-66" value="Photo" style="text;html=1;strokeColor=none;fillColor=none;align=center;verticalAlign=middle;whiteSpace=wrap;rounded=0;fontSize=18;" vertex="1" parent="TIm3emH9RXK-0WENc9MG-63">
                    <mxGeometry x="25" y="35" width="60" height="30" as="geometry"/>
                </mxCell>
                <mxCell id="TIm3emH9RXK-0WENc9MG-67" value="Recipe Title" style="text;html=1;strokeColor=none;fillColor=none;align=center;verticalAlign=middle;whiteSpace=wrap;rounded=0;labelBackgroundColor=none;fontSize=12;fontColor=#000000;" vertex="1" parent="TIm3emH9RXK-0WENc9MG-63">
                    <mxGeometry x="15" y="90" width="80" height="20" as="geometry"/>
                </mxCell>
                <mxCell id="TIm3emH9RXK-0WENc9MG-58" value="" style="group" vertex="1" connectable="0" parent="VxxARzWl_vqOeU3UC_TN-17">
                    <mxGeometry x="270" y="330" width="110" height="110" as="geometry"/>
                </mxCell>
                <mxCell id="TIm3emH9RXK-0WENc9MG-59" value="" style="whiteSpace=wrap;html=1;aspect=fixed;fillColor=#ecf39e;gradientColor=none;rounded=1;shadow=1;" vertex="1" parent="TIm3emH9RXK-0WENc9MG-58">
                    <mxGeometry width="110" height="110" as="geometry"/>
                </mxCell>
                <mxCell id="TIm3emH9RXK-0WENc9MG-60" value="" style="whiteSpace=wrap;html=1;aspect=fixed;fontSize=18;" vertex="1" parent="TIm3emH9RXK-0WENc9MG-58">
                    <mxGeometry x="15" y="10" width="80" height="80" as="geometry"/>
                </mxCell>
                <mxCell id="TIm3emH9RXK-0WENc9MG-61" value="Photo" style="text;html=1;strokeColor=none;fillColor=none;align=center;verticalAlign=middle;whiteSpace=wrap;rounded=0;fontSize=18;" vertex="1" parent="TIm3emH9RXK-0WENc9MG-58">
                    <mxGeometry x="25" y="35" width="60" height="30" as="geometry"/>
                </mxCell>
                <mxCell id="TIm3emH9RXK-0WENc9MG-62" value="Recipe Title" style="text;html=1;strokeColor=none;fillColor=none;align=center;verticalAlign=middle;whiteSpace=wrap;rounded=0;labelBackgroundColor=none;fontSize=12;fontColor=#000000;" vertex="1" parent="TIm3emH9RXK-0WENc9MG-58">
                    <mxGeometry x="15" y="90" width="80" height="20" as="geometry"/>
                </mxCell>
                <mxCell id="TIm3emH9RXK-0WENc9MG-53" value="" style="group" vertex="1" connectable="0" parent="VxxARzWl_vqOeU3UC_TN-17">
                    <mxGeometry x="80" y="330" width="110" height="110" as="geometry"/>
                </mxCell>
                <mxCell id="TIm3emH9RXK-0WENc9MG-54" value="" style="whiteSpace=wrap;html=1;aspect=fixed;fillColor=#ecf39e;gradientColor=none;rounded=1;shadow=1;" vertex="1" parent="TIm3emH9RXK-0WENc9MG-53">
                    <mxGeometry width="110" height="110" as="geometry"/>
                </mxCell>
                <mxCell id="TIm3emH9RXK-0WENc9MG-55" value="" style="whiteSpace=wrap;html=1;aspect=fixed;fontSize=18;" vertex="1" parent="TIm3emH9RXK-0WENc9MG-53">
                    <mxGeometry x="15" y="10" width="80" height="80" as="geometry"/>
                </mxCell>
                <mxCell id="TIm3emH9RXK-0WENc9MG-56" value="Photo" style="text;html=1;strokeColor=none;fillColor=none;align=center;verticalAlign=middle;whiteSpace=wrap;rounded=0;fontSize=18;" vertex="1" parent="TIm3emH9RXK-0WENc9MG-53">
                    <mxGeometry x="25" y="35" width="60" height="30" as="geometry"/>
                </mxCell>
                <mxCell id="TIm3emH9RXK-0WENc9MG-57" value="Recipe Title" style="text;html=1;strokeColor=none;fillColor=none;align=center;verticalAlign=middle;whiteSpace=wrap;rounded=0;labelBackgroundColor=none;fontSize=12;fontColor=#000000;" vertex="1" parent="TIm3emH9RXK-0WENc9MG-53">
                    <mxGeometry x="15" y="90" width="80" height="20" as="geometry"/>
                </mxCell>
            </root>
        </mxGraphModel>
    </diagram>
    <diagram id="X-0HR7UErQ6WsnRMnOyk" name="Recipe Page">
        <mxGraphModel dx="883" dy="1618" grid="1" gridSize="10" guides="1" tooltips="1" connect="1" arrows="1" fold="1" page="1" pageScale="1" pageWidth="850" pageHeight="1100" math="0" shadow="0">
            <root>
                <mxCell id="_55XmS5h-87pZMSL0oyr-0"/>
                <mxCell id="_55XmS5h-87pZMSL0oyr-1" parent="_55XmS5h-87pZMSL0oyr-0"/>
                <mxCell id="ILXgqQO45RgHCgIoFV-T-0" value="" style="group" parent="_55XmS5h-87pZMSL0oyr-1" vertex="1" connectable="0">
                    <mxGeometry x="100" width="650" height="640" as="geometry"/>
                </mxCell>
                <mxCell id="ILXgqQO45RgHCgIoFV-T-1" value="" style="whiteSpace=wrap;html=1;aspect=fixed;fillColor=#31572c;fontColor=#ffffff;strokeColor=#001DBC;" parent="ILXgqQO45RgHCgIoFV-T-0" vertex="1">
                    <mxGeometry width="640" height="640" as="geometry"/>
                </mxCell>
                <mxCell id="ILXgqQO45RgHCgIoFV-T-2" style="edgeStyle=none;html=1;exitX=0.5;exitY=1;exitDx=0;exitDy=0;" parent="ILXgqQO45RgHCgIoFV-T-0" source="ILXgqQO45RgHCgIoFV-T-3" target="ILXgqQO45RgHCgIoFV-T-1" edge="1">
                    <mxGeometry relative="1" as="geometry"/>
                </mxCell>
                <mxCell id="ILXgqQO45RgHCgIoFV-T-3" value="" style="rounded=0;whiteSpace=wrap;html=1;fillColor=#132a13;" parent="ILXgqQO45RgHCgIoFV-T-0" vertex="1">
                    <mxGeometry width="640" height="120" as="geometry"/>
                </mxCell>
                <mxCell id="ILXgqQO45RgHCgIoFV-T-4" value="JOIN our table" style="text;strokeColor=none;fillColor=none;html=1;fontSize=24;fontStyle=1;verticalAlign=middle;align=center;" parent="ILXgqQO45RgHCgIoFV-T-0" vertex="1">
                    <mxGeometry x="270" y="20" width="100" height="40" as="geometry"/>
                </mxCell>
                <mxCell id="ILXgqQO45RgHCgIoFV-T-5" value="Share your recipes!" style="text;html=1;strokeColor=none;fillColor=none;align=center;verticalAlign=middle;whiteSpace=wrap;rounded=0;" parent="ILXgqQO45RgHCgIoFV-T-0" vertex="1">
                    <mxGeometry x="240" y="60" width="160" height="30" as="geometry"/>
                </mxCell>
                <mxCell id="ILXgqQO45RgHCgIoFV-T-6" value="Login" style="text;html=1;strokeColor=none;fillColor=none;align=center;verticalAlign=middle;whiteSpace=wrap;rounded=0;" parent="ILXgqQO45RgHCgIoFV-T-0" vertex="1">
                    <mxGeometry x="590" width="60" height="30" as="geometry"/>
                </mxCell>
                <mxCell id="ILXgqQO45RgHCgIoFV-T-7" value="" style="rounded=0;whiteSpace=wrap;html=1;fillColor=#90a955;strokeColor=none;gradientColor=none;" parent="ILXgqQO45RgHCgIoFV-T-0" vertex="1">
                    <mxGeometry y="90" width="640" height="40" as="geometry"/>
                </mxCell>
                <mxCell id="ILXgqQO45RgHCgIoFV-T-8" value="Home" style="text;html=1;strokeColor=none;fillColor=none;align=center;verticalAlign=middle;whiteSpace=wrap;rounded=0;" parent="ILXgqQO45RgHCgIoFV-T-0" vertex="1">
                    <mxGeometry y="95" width="60" height="30" as="geometry"/>
                </mxCell>
                <mxCell id="ILXgqQO45RgHCgIoFV-T-9" value="My Recipes" style="text;html=1;strokeColor=none;fillColor=none;align=center;verticalAlign=middle;whiteSpace=wrap;rounded=0;" parent="ILXgqQO45RgHCgIoFV-T-0" vertex="1">
                    <mxGeometry x="60" y="95" width="60" height="30" as="geometry"/>
                </mxCell>
                <mxCell id="ILXgqQO45RgHCgIoFV-T-10" value="New Recipe" style="text;html=1;strokeColor=none;fillColor=none;align=center;verticalAlign=middle;whiteSpace=wrap;rounded=0;" parent="ILXgqQO45RgHCgIoFV-T-0" vertex="1">
                    <mxGeometry x="120" y="95" width="60" height="30" as="geometry"/>
                </mxCell>
                <mxCell id="ILXgqQO45RgHCgIoFV-T-11" value="Search" style="text;html=1;strokeColor=none;fillColor=none;align=center;verticalAlign=middle;whiteSpace=wrap;rounded=0;" parent="ILXgqQO45RgHCgIoFV-T-0" vertex="1">
                    <mxGeometry x="570" y="95" width="60" height="30" as="geometry"/>
                </mxCell>
                <mxCell id="ILXgqQO45RgHCgIoFV-T-12" value="All Recipes" style="text;html=1;strokeColor=none;fillColor=none;align=center;verticalAlign=middle;whiteSpace=wrap;rounded=0;" parent="ILXgqQO45RgHCgIoFV-T-0" vertex="1">
                    <mxGeometry x="180" y="95" width="60" height="30" as="geometry"/>
                </mxCell>
                <mxCell id="ILXgqQO45RgHCgIoFV-T-16" value="" style="whiteSpace=wrap;html=1;aspect=fixed;" parent="ILXgqQO45RgHCgIoFV-T-0" vertex="1">
                    <mxGeometry x="265" y="190" width="120" height="120" as="geometry"/>
                </mxCell>
                <mxCell id="ILXgqQO45RgHCgIoFV-T-17" value="Recipe Title" style="text;strokeColor=none;fillColor=none;html=1;fontSize=24;fontStyle=1;verticalAlign=middle;align=center;" parent="ILXgqQO45RgHCgIoFV-T-0" vertex="1">
                    <mxGeometry x="275" y="140" width="100" height="40" as="geometry"/>
                </mxCell>
                <mxCell id="ILXgqQO45RgHCgIoFV-T-18" value="Photo" style="text;html=1;strokeColor=none;fillColor=none;align=center;verticalAlign=middle;whiteSpace=wrap;rounded=0;" parent="ILXgqQO45RgHCgIoFV-T-0" vertex="1">
                    <mxGeometry x="295" y="230" width="60" height="30" as="geometry"/>
                </mxCell>
                <mxCell id="ILXgqQO45RgHCgIoFV-T-19" value="&lt;ul&gt;&lt;li&gt;Value 1&lt;/li&gt;&lt;li&gt;Value 2&lt;/li&gt;&lt;li&gt;Value 3&lt;/li&gt;&lt;/ul&gt;" style="text;strokeColor=none;fillColor=none;html=1;whiteSpace=wrap;verticalAlign=middle;overflow=hidden;" parent="ILXgqQO45RgHCgIoFV-T-0" vertex="1">
                    <mxGeometry x="10" y="420" width="560" height="80" as="geometry"/>
                </mxCell>
                <mxCell id="ILXgqQO45RgHCgIoFV-T-20" value="&lt;font style=&quot;font-size: 18px&quot;&gt;Ingredients&lt;/font&gt;" style="text;strokeColor=none;fillColor=none;html=1;fontSize=24;fontStyle=1;verticalAlign=middle;align=center;" parent="ILXgqQO45RgHCgIoFV-T-0" vertex="1">
                    <mxGeometry x="40" y="380" width="90" height="40" as="geometry"/>
                </mxCell>
                <mxCell id="ILXgqQO45RgHCgIoFV-T-23" value="&lt;font style=&quot;font-size: 18px&quot;&gt;Description of recipe will go here.&amp;nbsp;&lt;/font&gt;" style="text;html=1;strokeColor=none;fillColor=none;align=left;verticalAlign=middle;whiteSpace=wrap;rounded=0;fontSize=20;" parent="ILXgqQO45RgHCgIoFV-T-0" vertex="1">
                    <mxGeometry x="40" y="310" width="530" height="70" as="geometry"/>
                </mxCell>
                <mxCell id="ILXgqQO45RgHCgIoFV-T-24" value="&lt;font style=&quot;font-size: 18px&quot;&gt;Instructions&lt;/font&gt;" style="text;strokeColor=none;fillColor=none;html=1;fontSize=24;fontStyle=1;verticalAlign=middle;align=center;" parent="ILXgqQO45RgHCgIoFV-T-0" vertex="1">
                    <mxGeometry x="40" y="500" width="100" height="40" as="geometry"/>
                </mxCell>
                <mxCell id="ILXgqQO45RgHCgIoFV-T-26" value="&lt;ol style=&quot;font-size: 12px&quot;&gt;&lt;li&gt;Value 1&lt;/li&gt;&lt;li&gt;Value 2&lt;/li&gt;&lt;li&gt;Value 3&lt;/li&gt;&lt;/ol&gt;" style="text;strokeColor=none;fillColor=none;html=1;whiteSpace=wrap;verticalAlign=middle;overflow=hidden;fontSize=18;" parent="ILXgqQO45RgHCgIoFV-T-0" vertex="1">
                    <mxGeometry x="10" y="530" width="580" height="110" as="geometry"/>
                </mxCell>
            </root>
        </mxGraphModel>
    </diagram>
    <diagram id="_0R5uq8jHlBUlOIZ_wvJ" name="My Recipes">
        <mxGraphModel dx="883" dy="1618" grid="1" gridSize="10" guides="1" tooltips="1" connect="1" arrows="1" fold="1" page="1" pageScale="1" pageWidth="850" pageHeight="1100" math="0" shadow="0">
            <root>
                <mxCell id="gCCzAXwoEnrSQo66W0Ap-0"/>
                <mxCell id="gCCzAXwoEnrSQo66W0Ap-1" parent="gCCzAXwoEnrSQo66W0Ap-0"/>
                <mxCell id="FRB9B1ugV0YcuF8tvSSO-1" value="" style="whiteSpace=wrap;html=1;aspect=fixed;fillColor=#31572c;fontColor=#ffffff;strokeColor=#001DBC;" parent="gCCzAXwoEnrSQo66W0Ap-1" vertex="1">
                    <mxGeometry x="100" width="640" height="640" as="geometry"/>
                </mxCell>
                <mxCell id="FRB9B1ugV0YcuF8tvSSO-2" style="edgeStyle=none;html=1;exitX=0.5;exitY=1;exitDx=0;exitDy=0;" parent="gCCzAXwoEnrSQo66W0Ap-1" source="FRB9B1ugV0YcuF8tvSSO-3" target="FRB9B1ugV0YcuF8tvSSO-1" edge="1">
                    <mxGeometry relative="1" as="geometry"/>
                </mxCell>
                <mxCell id="FRB9B1ugV0YcuF8tvSSO-3" value="" style="rounded=0;whiteSpace=wrap;html=1;fillColor=#132a13;" parent="gCCzAXwoEnrSQo66W0Ap-1" vertex="1">
                    <mxGeometry x="100" width="640" height="120" as="geometry"/>
                </mxCell>
                <mxCell id="FRB9B1ugV0YcuF8tvSSO-4" value="JOIN our table" style="text;strokeColor=none;fillColor=none;html=1;fontSize=24;fontStyle=1;verticalAlign=middle;align=center;" parent="gCCzAXwoEnrSQo66W0Ap-1" vertex="1">
                    <mxGeometry x="370" y="20" width="100" height="40" as="geometry"/>
                </mxCell>
                <mxCell id="FRB9B1ugV0YcuF8tvSSO-5" value="Share your recipes!" style="text;html=1;strokeColor=none;fillColor=none;align=center;verticalAlign=middle;whiteSpace=wrap;rounded=0;" parent="gCCzAXwoEnrSQo66W0Ap-1" vertex="1">
                    <mxGeometry x="340" y="60" width="160" height="30" as="geometry"/>
                </mxCell>
                <mxCell id="FRB9B1ugV0YcuF8tvSSO-6" value="Login" style="text;html=1;strokeColor=none;fillColor=none;align=center;verticalAlign=middle;whiteSpace=wrap;rounded=0;" parent="gCCzAXwoEnrSQo66W0Ap-1" vertex="1">
                    <mxGeometry x="690" width="60" height="30" as="geometry"/>
                </mxCell>
                <mxCell id="FRB9B1ugV0YcuF8tvSSO-7" value="" style="rounded=0;whiteSpace=wrap;html=1;fillColor=#90a955;strokeColor=none;gradientColor=none;" parent="gCCzAXwoEnrSQo66W0Ap-1" vertex="1">
                    <mxGeometry x="100" y="90" width="640" height="40" as="geometry"/>
                </mxCell>
                <mxCell id="FRB9B1ugV0YcuF8tvSSO-8" value="Home" style="text;html=1;strokeColor=none;fillColor=none;align=center;verticalAlign=middle;whiteSpace=wrap;rounded=0;" parent="gCCzAXwoEnrSQo66W0Ap-1" vertex="1">
                    <mxGeometry x="100" y="95" width="60" height="30" as="geometry"/>
                </mxCell>
                <mxCell id="FRB9B1ugV0YcuF8tvSSO-9" value="My Recipes" style="text;html=1;strokeColor=none;fillColor=none;align=center;verticalAlign=middle;whiteSpace=wrap;rounded=0;" parent="gCCzAXwoEnrSQo66W0Ap-1" vertex="1">
                    <mxGeometry x="160" y="95" width="60" height="30" as="geometry"/>
                </mxCell>
                <mxCell id="FRB9B1ugV0YcuF8tvSSO-10" value="New Recipe" style="text;html=1;strokeColor=none;fillColor=none;align=center;verticalAlign=middle;whiteSpace=wrap;rounded=0;" parent="gCCzAXwoEnrSQo66W0Ap-1" vertex="1">
                    <mxGeometry x="220" y="95" width="60" height="30" as="geometry"/>
                </mxCell>
                <mxCell id="FRB9B1ugV0YcuF8tvSSO-11" value="Search" style="text;html=1;strokeColor=none;fillColor=none;align=center;verticalAlign=middle;whiteSpace=wrap;rounded=0;" parent="gCCzAXwoEnrSQo66W0Ap-1" vertex="1">
                    <mxGeometry x="670" y="95" width="60" height="30" as="geometry"/>
                </mxCell>
                <mxCell id="FRB9B1ugV0YcuF8tvSSO-12" value="All Recipes" style="text;html=1;strokeColor=none;fillColor=none;align=center;verticalAlign=middle;whiteSpace=wrap;rounded=0;" parent="gCCzAXwoEnrSQo66W0Ap-1" vertex="1">
                    <mxGeometry x="280" y="95" width="60" height="30" as="geometry"/>
                </mxCell>
                <mxCell id="FRB9B1ugV0YcuF8tvSSO-16" value="My Recipes" style="text;strokeColor=none;fillColor=none;html=1;fontSize=24;fontStyle=1;verticalAlign=middle;align=center;" parent="gCCzAXwoEnrSQo66W0Ap-1" vertex="1">
                    <mxGeometry x="290" y="140" width="230" height="40" as="geometry"/>
                </mxCell>
                <mxCell id="NxbOUCHiBZy6RXosjS24-4" value="" style="group" parent="gCCzAXwoEnrSQo66W0Ap-1" vertex="1" connectable="0">
                    <mxGeometry x="195" y="190" width="110" height="110" as="geometry"/>
                </mxCell>
                <mxCell id="FRB9B1ugV0YcuF8tvSSO-13" value="" style="whiteSpace=wrap;html=1;aspect=fixed;fillColor=#ecf39e;gradientColor=none;rounded=1;shadow=1;" parent="NxbOUCHiBZy6RXosjS24-4" vertex="1">
                    <mxGeometry width="110" height="110" as="geometry"/>
                </mxCell>
                <mxCell id="NxbOUCHiBZy6RXosjS24-0" value="" style="whiteSpace=wrap;html=1;aspect=fixed;labelBackgroundColor=none;fontSize=12;fontColor=#000000;fillColor=#2A2A2A;" parent="NxbOUCHiBZy6RXosjS24-4" vertex="1">
                    <mxGeometry x="15" y="10" width="80" height="80" as="geometry"/>
                </mxCell>
                <mxCell id="NxbOUCHiBZy6RXosjS24-1" value="Recipe Title" style="text;html=1;strokeColor=none;fillColor=none;align=center;verticalAlign=middle;whiteSpace=wrap;rounded=0;labelBackgroundColor=none;fontSize=12;fontColor=#000000;" parent="NxbOUCHiBZy6RXosjS24-4" vertex="1">
                    <mxGeometry x="15" y="90" width="80" height="20" as="geometry"/>
                </mxCell>
                <mxCell id="NxbOUCHiBZy6RXosjS24-3" value="Photo" style="text;html=1;strokeColor=none;fillColor=none;align=center;verticalAlign=middle;whiteSpace=wrap;rounded=0;labelBackgroundColor=none;fontSize=12;fontColor=#FFFFFF;" parent="NxbOUCHiBZy6RXosjS24-4" vertex="1">
                    <mxGeometry x="25" y="40" width="60" height="30" as="geometry"/>
                </mxCell>
                <mxCell id="NxbOUCHiBZy6RXosjS24-5" value="" style="group" parent="gCCzAXwoEnrSQo66W0Ap-1" vertex="1" connectable="0">
                    <mxGeometry x="350" y="190" width="110" height="110" as="geometry"/>
                </mxCell>
                <mxCell id="NxbOUCHiBZy6RXosjS24-6" value="" style="whiteSpace=wrap;html=1;aspect=fixed;fillColor=#ecf39e;gradientColor=none;rounded=1;shadow=1;" parent="NxbOUCHiBZy6RXosjS24-5" vertex="1">
                    <mxGeometry width="110" height="110" as="geometry"/>
                </mxCell>
                <mxCell id="NxbOUCHiBZy6RXosjS24-7" value="" style="whiteSpace=wrap;html=1;aspect=fixed;labelBackgroundColor=none;fontSize=12;fontColor=#000000;fillColor=#2A2A2A;" parent="NxbOUCHiBZy6RXosjS24-5" vertex="1">
                    <mxGeometry x="15" y="10" width="80" height="80" as="geometry"/>
                </mxCell>
                <mxCell id="NxbOUCHiBZy6RXosjS24-8" value="Recipe Title" style="text;html=1;strokeColor=none;fillColor=none;align=center;verticalAlign=middle;whiteSpace=wrap;rounded=0;labelBackgroundColor=none;fontSize=12;fontColor=#000000;" parent="NxbOUCHiBZy6RXosjS24-5" vertex="1">
                    <mxGeometry x="15" y="90" width="80" height="20" as="geometry"/>
                </mxCell>
                <mxCell id="NxbOUCHiBZy6RXosjS24-9" value="Photo" style="text;html=1;strokeColor=none;fillColor=none;align=center;verticalAlign=middle;whiteSpace=wrap;rounded=0;labelBackgroundColor=none;fontSize=12;fontColor=#FFFFFF;" parent="NxbOUCHiBZy6RXosjS24-5" vertex="1">
                    <mxGeometry x="25" y="40" width="60" height="30" as="geometry"/>
                </mxCell>
                <mxCell id="NxbOUCHiBZy6RXosjS24-13" value="" style="group" parent="gCCzAXwoEnrSQo66W0Ap-1" vertex="1" connectable="0">
                    <mxGeometry x="500" y="190" width="110" height="110" as="geometry"/>
                </mxCell>
                <mxCell id="NxbOUCHiBZy6RXosjS24-14" value="" style="whiteSpace=wrap;html=1;aspect=fixed;fillColor=#ecf39e;gradientColor=none;rounded=1;shadow=1;" parent="NxbOUCHiBZy6RXosjS24-13" vertex="1">
                    <mxGeometry width="110" height="110" as="geometry"/>
                </mxCell>
                <mxCell id="NxbOUCHiBZy6RXosjS24-15" value="" style="whiteSpace=wrap;html=1;aspect=fixed;labelBackgroundColor=none;fontSize=12;fontColor=#000000;fillColor=#2A2A2A;" parent="NxbOUCHiBZy6RXosjS24-13" vertex="1">
                    <mxGeometry x="15" y="10" width="80" height="80" as="geometry"/>
                </mxCell>
                <mxCell id="NxbOUCHiBZy6RXosjS24-16" value="Recipe Title" style="text;html=1;strokeColor=none;fillColor=none;align=center;verticalAlign=middle;whiteSpace=wrap;rounded=0;labelBackgroundColor=none;fontSize=12;fontColor=#000000;" parent="NxbOUCHiBZy6RXosjS24-13" vertex="1">
                    <mxGeometry x="15" y="90" width="80" height="20" as="geometry"/>
                </mxCell>
                <mxCell id="NxbOUCHiBZy6RXosjS24-17" value="Photo" style="text;html=1;strokeColor=none;fillColor=none;align=center;verticalAlign=middle;whiteSpace=wrap;rounded=0;labelBackgroundColor=none;fontSize=12;fontColor=#FFFFFF;" parent="NxbOUCHiBZy6RXosjS24-13" vertex="1">
                    <mxGeometry x="25" y="40" width="60" height="30" as="geometry"/>
                </mxCell>
                <mxCell id="NxbOUCHiBZy6RXosjS24-19" value="" style="group" parent="gCCzAXwoEnrSQo66W0Ap-1" vertex="1" connectable="0">
                    <mxGeometry x="195" y="330" width="110" height="110" as="geometry"/>
                </mxCell>
                <mxCell id="NxbOUCHiBZy6RXosjS24-20" value="" style="whiteSpace=wrap;html=1;aspect=fixed;fillColor=#ecf39e;gradientColor=none;rounded=1;shadow=1;" parent="NxbOUCHiBZy6RXosjS24-19" vertex="1">
                    <mxGeometry width="110" height="110" as="geometry"/>
                </mxCell>
                <mxCell id="NxbOUCHiBZy6RXosjS24-21" value="" style="whiteSpace=wrap;html=1;aspect=fixed;labelBackgroundColor=none;fontSize=12;fontColor=#000000;fillColor=#2A2A2A;" parent="NxbOUCHiBZy6RXosjS24-19" vertex="1">
                    <mxGeometry x="15" y="10" width="80" height="80" as="geometry"/>
                </mxCell>
                <mxCell id="NxbOUCHiBZy6RXosjS24-22" value="Recipe Title" style="text;html=1;strokeColor=none;fillColor=none;align=center;verticalAlign=middle;whiteSpace=wrap;rounded=0;labelBackgroundColor=none;fontSize=12;fontColor=#000000;" parent="NxbOUCHiBZy6RXosjS24-19" vertex="1">
                    <mxGeometry x="15" y="90" width="80" height="20" as="geometry"/>
                </mxCell>
                <mxCell id="NxbOUCHiBZy6RXosjS24-23" value="Photo" style="text;html=1;strokeColor=none;fillColor=none;align=center;verticalAlign=middle;whiteSpace=wrap;rounded=0;labelBackgroundColor=none;fontSize=12;fontColor=#FFFFFF;" parent="NxbOUCHiBZy6RXosjS24-19" vertex="1">
                    <mxGeometry x="25" y="40" width="60" height="30" as="geometry"/>
                </mxCell>
                <mxCell id="NxbOUCHiBZy6RXosjS24-26" value="" style="group" parent="gCCzAXwoEnrSQo66W0Ap-1" vertex="1" connectable="0">
                    <mxGeometry x="350" y="330" width="110" height="110" as="geometry"/>
                </mxCell>
                <mxCell id="NxbOUCHiBZy6RXosjS24-27" value="" style="whiteSpace=wrap;html=1;aspect=fixed;fillColor=#ecf39e;gradientColor=none;rounded=1;shadow=1;" parent="NxbOUCHiBZy6RXosjS24-26" vertex="1">
                    <mxGeometry width="110" height="110" as="geometry"/>
                </mxCell>
                <mxCell id="NxbOUCHiBZy6RXosjS24-28" value="" style="whiteSpace=wrap;html=1;aspect=fixed;labelBackgroundColor=none;fontSize=12;fontColor=#000000;fillColor=#2A2A2A;" parent="NxbOUCHiBZy6RXosjS24-26" vertex="1">
                    <mxGeometry x="15" y="10" width="80" height="80" as="geometry"/>
                </mxCell>
                <mxCell id="NxbOUCHiBZy6RXosjS24-29" value="Recipe Title" style="text;html=1;strokeColor=none;fillColor=none;align=center;verticalAlign=middle;whiteSpace=wrap;rounded=0;labelBackgroundColor=none;fontSize=12;fontColor=#000000;" parent="NxbOUCHiBZy6RXosjS24-26" vertex="1">
                    <mxGeometry x="15" y="90" width="80" height="20" as="geometry"/>
                </mxCell>
                <mxCell id="NxbOUCHiBZy6RXosjS24-30" value="Photo" style="text;html=1;strokeColor=none;fillColor=none;align=center;verticalAlign=middle;whiteSpace=wrap;rounded=0;labelBackgroundColor=none;fontSize=12;fontColor=#FFFFFF;" parent="NxbOUCHiBZy6RXosjS24-26" vertex="1">
                    <mxGeometry x="25" y="40" width="60" height="30" as="geometry"/>
                </mxCell>
                <mxCell id="NxbOUCHiBZy6RXosjS24-31" value="" style="group" parent="gCCzAXwoEnrSQo66W0Ap-1" vertex="1" connectable="0">
                    <mxGeometry x="500" y="330" width="110" height="110" as="geometry"/>
                </mxCell>
                <mxCell id="NxbOUCHiBZy6RXosjS24-32" value="" style="whiteSpace=wrap;html=1;aspect=fixed;fillColor=#ecf39e;gradientColor=none;rounded=1;shadow=1;" parent="NxbOUCHiBZy6RXosjS24-31" vertex="1">
                    <mxGeometry width="110" height="110" as="geometry"/>
                </mxCell>
                <mxCell id="NxbOUCHiBZy6RXosjS24-33" value="" style="whiteSpace=wrap;html=1;aspect=fixed;labelBackgroundColor=none;fontSize=12;fontColor=#000000;fillColor=#2A2A2A;" parent="NxbOUCHiBZy6RXosjS24-31" vertex="1">
                    <mxGeometry x="15" y="10" width="80" height="80" as="geometry"/>
                </mxCell>
                <mxCell id="NxbOUCHiBZy6RXosjS24-34" value="Recipe Title" style="text;html=1;strokeColor=none;fillColor=none;align=center;verticalAlign=middle;whiteSpace=wrap;rounded=0;labelBackgroundColor=none;fontSize=12;fontColor=#000000;" parent="NxbOUCHiBZy6RXosjS24-31" vertex="1">
                    <mxGeometry x="15" y="90" width="80" height="20" as="geometry"/>
                </mxCell>
                <mxCell id="NxbOUCHiBZy6RXosjS24-35" value="Photo" style="text;html=1;strokeColor=none;fillColor=none;align=center;verticalAlign=middle;whiteSpace=wrap;rounded=0;labelBackgroundColor=none;fontSize=12;fontColor=#FFFFFF;" parent="NxbOUCHiBZy6RXosjS24-31" vertex="1">
                    <mxGeometry x="25" y="40" width="60" height="30" as="geometry"/>
                </mxCell>
            </root>
        </mxGraphModel>
    </diagram>
    <diagram id="tld10LYtDz9xNio8cYv8" name="New Recipe">
        <mxGraphModel dx="883" dy="518" grid="1" gridSize="10" guides="1" tooltips="1" connect="1" arrows="1" fold="1" page="1" pageScale="1" pageWidth="850" pageHeight="1100" math="0" shadow="0">
            <root>
                <mxCell id="Ahxe6hJAuXr0z70jBtzV-0"/>
                <mxCell id="Ahxe6hJAuXr0z70jBtzV-1" parent="Ahxe6hJAuXr0z70jBtzV-0"/>
                <mxCell id="WXPehJ3SYNeRDrj_6ox8-0" value="" style="group" parent="Ahxe6hJAuXr0z70jBtzV-1" vertex="1" connectable="0">
                    <mxGeometry x="100" y="40" width="650" height="640" as="geometry"/>
                </mxCell>
                <mxCell id="WXPehJ3SYNeRDrj_6ox8-1" value="" style="whiteSpace=wrap;html=1;aspect=fixed;fillColor=#31572c;fontColor=#ffffff;strokeColor=#001DBC;" parent="WXPehJ3SYNeRDrj_6ox8-0" vertex="1">
                    <mxGeometry width="640" height="640" as="geometry"/>
                </mxCell>
                <mxCell id="WXPehJ3SYNeRDrj_6ox8-2" style="edgeStyle=none;html=1;exitX=0.5;exitY=1;exitDx=0;exitDy=0;" parent="WXPehJ3SYNeRDrj_6ox8-0" source="WXPehJ3SYNeRDrj_6ox8-3" target="WXPehJ3SYNeRDrj_6ox8-1" edge="1">
                    <mxGeometry relative="1" as="geometry"/>
                </mxCell>
                <mxCell id="WXPehJ3SYNeRDrj_6ox8-3" value="" style="rounded=0;whiteSpace=wrap;html=1;fillColor=#132a13;" parent="WXPehJ3SYNeRDrj_6ox8-0" vertex="1">
                    <mxGeometry width="640" height="120" as="geometry"/>
                </mxCell>
                <mxCell id="WXPehJ3SYNeRDrj_6ox8-4" value="JOIN our table" style="text;strokeColor=none;fillColor=none;html=1;fontSize=24;fontStyle=1;verticalAlign=middle;align=center;" parent="WXPehJ3SYNeRDrj_6ox8-0" vertex="1">
                    <mxGeometry x="270" y="20" width="100" height="40" as="geometry"/>
                </mxCell>
                <mxCell id="WXPehJ3SYNeRDrj_6ox8-5" value="Share your recipes!" style="text;html=1;strokeColor=none;fillColor=none;align=center;verticalAlign=middle;whiteSpace=wrap;rounded=0;" parent="WXPehJ3SYNeRDrj_6ox8-0" vertex="1">
                    <mxGeometry x="240" y="60" width="160" height="30" as="geometry"/>
                </mxCell>
                <mxCell id="WXPehJ3SYNeRDrj_6ox8-6" value="Login" style="text;html=1;strokeColor=none;fillColor=none;align=center;verticalAlign=middle;whiteSpace=wrap;rounded=0;" parent="WXPehJ3SYNeRDrj_6ox8-0" vertex="1">
                    <mxGeometry x="590" width="60" height="30" as="geometry"/>
                </mxCell>
                <mxCell id="WXPehJ3SYNeRDrj_6ox8-7" value="" style="rounded=0;whiteSpace=wrap;html=1;fillColor=#90a955;strokeColor=none;gradientColor=none;" parent="WXPehJ3SYNeRDrj_6ox8-0" vertex="1">
                    <mxGeometry y="90" width="640" height="40" as="geometry"/>
                </mxCell>
                <mxCell id="WXPehJ3SYNeRDrj_6ox8-8" value="Home" style="text;html=1;strokeColor=none;fillColor=none;align=center;verticalAlign=middle;whiteSpace=wrap;rounded=0;" parent="WXPehJ3SYNeRDrj_6ox8-0" vertex="1">
                    <mxGeometry y="95" width="60" height="30" as="geometry"/>
                </mxCell>
                <mxCell id="WXPehJ3SYNeRDrj_6ox8-9" value="My Recipes" style="text;html=1;strokeColor=none;fillColor=none;align=center;verticalAlign=middle;whiteSpace=wrap;rounded=0;" parent="WXPehJ3SYNeRDrj_6ox8-0" vertex="1">
                    <mxGeometry x="60" y="95" width="60" height="30" as="geometry"/>
                </mxCell>
                <mxCell id="WXPehJ3SYNeRDrj_6ox8-10" value="New Recipe" style="text;html=1;strokeColor=none;fillColor=none;align=center;verticalAlign=middle;whiteSpace=wrap;rounded=0;" parent="WXPehJ3SYNeRDrj_6ox8-0" vertex="1">
                    <mxGeometry x="120" y="95" width="60" height="30" as="geometry"/>
                </mxCell>
                <mxCell id="WXPehJ3SYNeRDrj_6ox8-11" value="Search" style="text;html=1;strokeColor=none;fillColor=none;align=center;verticalAlign=middle;whiteSpace=wrap;rounded=0;" parent="WXPehJ3SYNeRDrj_6ox8-0" vertex="1">
                    <mxGeometry x="570" y="95" width="60" height="30" as="geometry"/>
                </mxCell>
                <mxCell id="WXPehJ3SYNeRDrj_6ox8-12" value="All Recipes" style="text;html=1;strokeColor=none;fillColor=none;align=center;verticalAlign=middle;whiteSpace=wrap;rounded=0;" parent="WXPehJ3SYNeRDrj_6ox8-0" vertex="1">
                    <mxGeometry x="180" y="95" width="60" height="30" as="geometry"/>
                </mxCell>
                <mxCell id="WXPehJ3SYNeRDrj_6ox8-43" value="Create a New Recipe" style="text;strokeColor=none;fillColor=none;html=1;fontSize=24;fontStyle=1;verticalAlign=middle;align=center;labelBackgroundColor=none;fontColor=#FFFFFF;" parent="WXPehJ3SYNeRDrj_6ox8-0" vertex="1">
                    <mxGeometry x="190" y="140" width="250" height="40" as="geometry"/>
                </mxCell>
                <mxCell id="WXPehJ3SYNeRDrj_6ox8-47" value="Recipe Title" style="text;html=1;strokeColor=none;fillColor=none;align=center;verticalAlign=middle;whiteSpace=wrap;rounded=0;labelBackgroundColor=none;fontSize=12;fontColor=#FFFFFF;" parent="WXPehJ3SYNeRDrj_6ox8-0" vertex="1">
                    <mxGeometry x="240" y="190" width="170" height="30" as="geometry"/>
                </mxCell>
                <mxCell id="WXPehJ3SYNeRDrj_6ox8-51" value="Ingredients" style="text;html=1;strokeColor=none;fillColor=none;align=center;verticalAlign=middle;whiteSpace=wrap;rounded=0;labelBackgroundColor=none;fontSize=12;fontColor=#FFFFFF;" parent="WXPehJ3SYNeRDrj_6ox8-0" vertex="1">
                    <mxGeometry x="295" y="320" width="60" height="30" as="geometry"/>
                </mxCell>
                <mxCell id="WXPehJ3SYNeRDrj_6ox8-55" value="Units" style="rounded=1;fillColor=#F1F2F4;strokeColor=none;html=1;fontColor=#596780;align=left;fontSize=12;spacingLeft=10;sketch=0;labelBackgroundColor=none;" parent="WXPehJ3SYNeRDrj_6ox8-0" vertex="1">
                    <mxGeometry x="355" y="350" width="70" height="26.5" as="geometry"/>
                </mxCell>
                <mxCell id="WXPehJ3SYNeRDrj_6ox8-56" value="" style="shape=triangle;direction=south;fillColor=#596780;strokeColor=none;html=1;sketch=0;labelBackgroundColor=none;fontSize=12;fontColor=#999999;" parent="WXPehJ3SYNeRDrj_6ox8-55" vertex="1">
                    <mxGeometry x="1" y="0.5" width="12" height="6" relative="1" as="geometry">
                        <mxPoint x="-20" y="-3" as="offset"/>
                    </mxGeometry>
                </mxCell>
                <mxCell id="WXPehJ3SYNeRDrj_6ox8-48" value="" style="shape=rect;fillColor=#e0e0e0;strokeColor=none;labelBackgroundColor=none;fontSize=12;fontColor=#FFFFFF;" parent="WXPehJ3SYNeRDrj_6ox8-0" vertex="1">
                    <mxGeometry x="240" y="350" width="107" height="23.25" as="geometry"/>
                </mxCell>
                <mxCell id="WXPehJ3SYNeRDrj_6ox8-49" value="" style="html=1;strokeWidth=1;shadow=0;dashed=0;shape=mxgraph.ios7ui.marginRect;rx=3;ry=3;rectMargin=5;strokeColor=none;labelBackgroundColor=none;fontSize=12;fontColor=#FFFFFF;fillColor=none;" parent="WXPehJ3SYNeRDrj_6ox8-48" vertex="1">
                    <mxGeometry width="107.00000000000001" height="23.25" as="geometry"/>
                </mxCell>
                <mxCell id="WXPehJ3SYNeRDrj_6ox8-50" value="Search" style="shape=mxgraph.ios7.icons.looking_glass;strokeColor=#e0e0e0;fillColor=none;fontColor=#e0e0e0;labelPosition=right;verticalLabelPosition=middle;align=left;verticalAlign=middle;fontSize=6;fontStyle=0;spacingTop=2;sketch=0;labelBackgroundColor=none;" parent="WXPehJ3SYNeRDrj_6ox8-48" vertex="1">
                    <mxGeometry x="0.5" y="0.5" width="6" height="6" relative="1" as="geometry">
                        <mxPoint x="-17" y="-3" as="offset"/>
                    </mxGeometry>
                </mxCell>
                <mxCell id="WXPehJ3SYNeRDrj_6ox8-57" value="" style="html=1;verticalLabelPosition=bottom;align=center;labelBackgroundColor=#ffffff;verticalAlign=top;strokeWidth=2;strokeColor=#0080F0;shadow=0;dashed=0;shape=mxgraph.ios7.icons.add;fontSize=12;fontColor=#999999;fillColor=none;" parent="WXPehJ3SYNeRDrj_6ox8-0" vertex="1">
                    <mxGeometry x="435" y="351.5" width="30" height="25" as="geometry"/>
                </mxCell>
                <mxCell id="WXPehJ3SYNeRDrj_6ox8-58" value="&lt;ul&gt;&lt;li&gt;Added ingredient and unit&lt;/li&gt;&lt;li&gt;Added ingredient and unit&lt;/li&gt;&lt;li&gt;Added ingredient and unit&lt;/li&gt;&lt;/ul&gt;" style="text;strokeColor=none;fillColor=none;html=1;whiteSpace=wrap;verticalAlign=middle;overflow=hidden;labelBackgroundColor=none;fontSize=12;fontColor=#999999;" parent="WXPehJ3SYNeRDrj_6ox8-0" vertex="1">
                    <mxGeometry x="215" y="370" width="220" height="80" as="geometry"/>
                </mxCell>
                <mxCell id="WXPehJ3SYNeRDrj_6ox8-62" value="Choose File" style="fillColor=#FEFEFE;strokeColor=#AAAAAA;fontSize=14;gradientColor=#F0F0F0;labelBackgroundColor=none;fontColor=#999999;" parent="WXPehJ3SYNeRDrj_6ox8-0" vertex="1">
                    <mxGeometry x="248.5" y="280" width="90" height="30" as="geometry"/>
                </mxCell>
                <mxCell id="WXPehJ3SYNeRDrj_6ox8-63" value="No file chosen" style="fillColor=none;strokeColor=none;align=left;fontSize=14;spacing=5;labelBackgroundColor=none;fontColor=#999999;" parent="WXPehJ3SYNeRDrj_6ox8-0" vertex="1">
                    <mxGeometry x="347" y="280" width="100" height="30" as="geometry"/>
                </mxCell>
                <mxCell id="WXPehJ3SYNeRDrj_6ox8-38" value="Recipe Picture" style="text;html=1;strokeColor=none;fillColor=none;align=center;verticalAlign=middle;whiteSpace=wrap;rounded=0;labelBackgroundColor=none;fontSize=12;fontColor=#FFFFFF;" vertex="1" parent="WXPehJ3SYNeRDrj_6ox8-0">
                    <mxGeometry x="240" y="250" width="170" height="30" as="geometry"/>
                </mxCell>
                <mxCell id="WXPehJ3SYNeRDrj_6ox8-39" value="" style="rounded=0;whiteSpace=wrap;html=1;labelBackgroundColor=none;fontSize=12;fontColor=#999999;fillColor=#FFFFFF;" vertex="1" parent="WXPehJ3SYNeRDrj_6ox8-0">
                    <mxGeometry x="164" y="490" width="322" height="140" as="geometry"/>
                </mxCell>
                <mxCell id="WXPehJ3SYNeRDrj_6ox8-40" value="Instructions" style="text;html=1;strokeColor=none;fillColor=none;align=center;verticalAlign=middle;whiteSpace=wrap;rounded=0;labelBackgroundColor=none;fontSize=12;fontColor=#FFFFFF;" vertex="1" parent="WXPehJ3SYNeRDrj_6ox8-0">
                    <mxGeometry x="295" y="460" width="60" height="30" as="geometry"/>
                </mxCell>
                <mxCell id="WXPehJ3SYNeRDrj_6ox8-44" value="" style="shape=rect;fillColor=#e0e0e0;strokeColor=none;labelBackgroundColor=none;fontSize=12;fontColor=#FFFFFF;" parent="Ahxe6hJAuXr0z70jBtzV-1" vertex="1">
                    <mxGeometry x="343" y="260" width="164" height="20" as="geometry"/>
                </mxCell>
                <mxCell id="WXPehJ3SYNeRDrj_6ox8-45" value="" style="html=1;strokeWidth=1;shadow=0;dashed=0;shape=mxgraph.ios7ui.marginRect;rx=3;ry=3;rectMargin=5;strokeColor=none;labelBackgroundColor=none;fontSize=12;fontColor=#FFFFFF;fillColor=none;" parent="WXPehJ3SYNeRDrj_6ox8-44" vertex="1">
                    <mxGeometry width="164" height="20" as="geometry"/>
                </mxCell>
                <mxCell id="WXPehJ3SYNeRDrj_6ox8-46" value="Search" style="shape=mxgraph.ios7.icons.looking_glass;strokeColor=#e0e0e0;fillColor=none;fontColor=#e0e0e0;labelPosition=right;verticalLabelPosition=middle;align=left;verticalAlign=middle;fontSize=6;fontStyle=0;spacingTop=2;sketch=0;labelBackgroundColor=none;" parent="WXPehJ3SYNeRDrj_6ox8-44" vertex="1">
                    <mxGeometry x="0.5" y="0.5" width="6" height="6" relative="1" as="geometry">
                        <mxPoint x="-17" y="-3" as="offset"/>
                    </mxGeometry>
                </mxCell>
            </root>
        </mxGraphModel>
    </diagram>
</mxfile>